<?xml version="1.0" encoding="utf-8"?>
<!-- Generator: Adobe Illustrator 21.1.0, SVG Export Plug-In . SVG Version: 6.00 Build 0)  -->
<svg version="1.1" id="Layer_1" xmlns="http://www.w3.org/2000/svg" xmlns:xlink="http://www.w3.org/1999/xlink" x="0px" y="0px"
	 viewBox="0 0 90 89.4" style="enable-background:new 0 0 90 89.4;" xml:space="preserve">
<style type="text/css">
	.st0{opacity:0.1;}
	.st1{fill:#3168D7;}
	.st2{fill:#204394;}
	.st3{fill:#649CF4;}
	.st4{fill:none;stroke:url(#SVGID_1_);stroke-width:4;stroke-linecap:round;stroke-miterlimit:10;}
	.st5{fill:none;stroke:url(#SVGID_2_);stroke-width:4;stroke-linecap:round;stroke-miterlimit:10;}
	.st6{fill:none;stroke:url(#SVGID_3_);stroke-width:4;stroke-linecap:round;stroke-miterlimit:10;}
</style>
<g>
	<ellipse class="st0" cx="45.8" cy="84.3" rx="31.3" ry="5.1"/>
	<path class="st1" d="M86.8,66H3.2C1.4,66,0,64.6,0,62.8V3.2C0,1.4,1.4,0,3.2,0h83.6C88.6,0,90,1.4,90,3.2v59.6
		C90,64.6,88.6,66,86.8,66z"/>
	<g>
		<rect x="7.3" y="5.4" class="st2" width="75.4" height="55.3"/>
		<g class="st0">
			<path d="M81.7,6.4v53.3H8.3V6.4H81.7 M82.7,5.4H7.3v55.3h75.4V5.4L82.7,5.4z"/>
		</g>
	</g>
	<polygon class="st1" points="51.6,75.2 51.6,66 38.3,66 38.3,75.2 28.2,75.2 28.2,82.3 38.3,82.3 51.6,82.3 61.9,82.3 61.9,75.2 	
		"/>
	<g>
		<circle class="st3" cx="11.4" cy="9" r="1.3"/>
		<circle class="st3" cx="14.9" cy="9" r="1.3"/>
		<circle class="st3" cx="18.5" cy="9" r="1.3"/>
	</g>
	<linearGradient id="SVGID_1_" gradientUnits="userSpaceOnUse" x1="24.9559" y1="28.6191" x2="65.0602" y2="28.6191">
		<stop  offset="0" style="stop-color:#FD9B2A"/>
		<stop  offset="0.3876" style="stop-color:#FC8F28"/>
		<stop  offset="1" style="stop-color:#F97324"/>
	</linearGradient>
	<line class="st4" x1="27" y1="28.6" x2="63.1" y2="28.6"/>
	<linearGradient id="SVGID_2_" gradientUnits="userSpaceOnUse" x1="24.9559" y1="38.6191" x2="65.0602" y2="38.6191">
		<stop  offset="0" style="stop-color:#FD9B2A"/>
		<stop  offset="0.3876" style="stop-color:#FC8F28"/>
		<stop  offset="1" style="stop-color:#F97324"/>
	</linearGradient>
	<line class="st5" x1="27" y1="38.6" x2="63.1" y2="38.6"/>
	<linearGradient id="SVGID_3_" gradientUnits="userSpaceOnUse" x1="24.9559" y1="48.6191" x2="65.0602" y2="48.6191">
		<stop  offset="0" style="stop-color:#FD9B2A"/>
		<stop  offset="0.3876" style="stop-color:#FC8F28"/>
		<stop  offset="1" style="stop-color:#F97324"/>
	</linearGradient>
	<line class="st6" x1="27" y1="48.6" x2="63.1" y2="48.6"/>
</g>
</svg>
